<?xml version="1.0" standalone="no"?>
<!DOCTYPE svg PUBLIC "-//W3C//DTD SVG 20010904//EN"
 "http://www.w3.org/TR/2001/REC-SVG-20010904/DTD/svg10.dtd">
<svg version="1.0" xmlns="http://www.w3.org/2000/svg"
 width="192.000000pt" height="192.000000pt" viewBox="0 0 192.000000 192.000000"
 preserveAspectRatio="xMidYMid meet">
<metadata>
Created by potrace 1.11, written by Peter Selinger 2001-2013
</metadata>
<g transform="translate(0.000000,192.000000) scale(0.100000,-0.100000)"
fill="#000000" stroke="none">
<path d="M625 1530 c3 -4 -2 -10 -10 -14 -8 -3 -17 -1 -20 4 -4 6 -11 10 -16
10 -6 0 -7 -4 -4 -10 3 -6 -1 -7 -9 -4 -9 3 -16 1 -16 -6 0 -6 -4 -9 -8 -6 -4
2 -9 -5 -9 -17 -2 -17 0 -19 7 -7 6 9 10 10 10 3 0 -6 -4 -14 -9 -17 -5 -3 -7
-19 -5 -36 2 -19 -1 -30 -9 -30 -6 0 -4 -5 6 -11 10 -6 14 -15 10 -22 -11 -18
-11 -57 0 -57 6 0 2 -7 -9 -16 -10 -8 -14 -13 -8 -10 7 3 14 -3 17 -14 3 -11
1 -20 -3 -20 -5 0 -7 -20 -5 -45 3 -31 0 -45 -8 -45 -7 0 -4 -5 6 -11 14 -8
16 -14 6 -25 -6 -8 -8 -14 -4 -14 4 0 2 -7 -5 -15 -11 -13 -10 -14 1 -10 11 4
14 -2 14 -20 -1 -14 -5 -28 -10 -32 -4 -5 -5 -3 -1 4 3 6 2 14 -3 17 -8 5 -8
-15 -1 -34 1 -3 2 -9 1 -14 -1 -5 4 -13 11 -17 8 -5 9 -9 2 -9 -7 0 -10 -13
-8 -30 2 -19 -1 -30 -9 -30 -6 0 -4 -5 6 -11 10 -6 14 -15 10 -22 -11 -18 -11
-57 0 -57 6 0 2 -7 -9 -16 -10 -8 -14 -13 -8 -10 7 3 14 -3 17 -14 3 -11 1
-20 -3 -20 -5 0 -7 -20 -5 -45 3 -31 0 -45 -8 -45 -7 0 -4 -5 5 -11 17 -9 17
-11 1 -37 -15 -22 -15 -25 -2 -15 13 10 16 10 16 -2 0 -8 -5 -15 -10 -15 -6 0
-7 -3 -4 -7 4 -3 2 -12 -5 -20 -8 -10 -8 -12 3 -8 10 4 15 -1 15 -15 0 -11 -3
-20 -7 -20 -9 0 -5 -72 5 -89 6 -9 5 -12 -1 -8 -5 3 -10 0 -10 -8 0 -8 4 -12
8 -10 4 3 10 -2 13 -10 4 -12 11 -13 23 -7 21 11 46 5 37 -9 -3 -5 0 -9 5 -9
6 0 11 4 11 10 0 5 7 6 17 3 12 -5 14 -3 8 8 -7 12 -6 12 7 1 9 -7 20 -12 24
-11 5 1 11 0 14 -1 19 -7 39 -7 34 1 -7 12 3 11 26 -1 17 -9 19 -8 13 7 -6 16
-4 16 17 -2 13 -11 20 -15 17 -8 -5 8 1 11 20 9 16 -2 34 1 42 8 11 8 13 8 7
-1 -5 -10 2 -12 26 -10 18 2 39 -1 47 -7 12 -9 13 -8 7 3 -7 10 -3 12 13 6 13
-4 21 -2 21 5 0 6 5 8 10 5 6 -4 7 -12 4 -18 -5 -8 -3 -8 7 0 16 15 33 17 24
3 -9 -15 2 -12 19 6 9 8 16 11 16 6 0 -6 18 -9 40 -9 22 1 40 5 40 10 0 4 5 5
10 2 6 -4 7 -12 4 -18 -5 -8 -3 -8 7 0 16 15 33 17 24 3 -3 -6 1 -7 9 -4 9 3
16 11 16 18 0 8 2 8 8 0 8 -14 70 -13 91 0 11 7 13 5 7 -10 -6 -15 -5 -17 5
-6 17 16 32 16 24 0 -4 -7 -1 -6 7 3 7 8 21 18 32 22 14 6 16 10 7 21 -9 11
-9 15 1 19 11 4 11 6 0 6 -10 1 -10 6 -1 22 6 12 7 19 2 16 -5 -4 -10 0 -10 8
0 8 4 12 8 9 4 -2 11 0 14 6 4 6 1 9 -5 8 -15 -4 -22 30 -9 38 6 3 5 12 -3 22
-8 10 -9 13 -1 9 6 -4 15 -3 18 3 4 6 1 9 -6 8 -16 -4 -20 61 -6 80 7 9 5 11
-8 5 -14 -5 -17 -3 -13 9 5 11 1 14 -18 10 -13 -2 -32 2 -41 9 -10 8 -14 9
-10 2 5 -8 0 -11 -13 -10 -11 1 -20 6 -20 12 0 5 -5 3 -10 -5 -8 -12 -11 -13
-19 -1 -7 11 -9 11 -14 0 -5 -12 -7 -12 -15 0 -8 11 -10 11 -15 0 -4 -12 -7
-11 -16 1 -7 10 -11 11 -11 3 0 -7 -7 -13 -15 -13 -8 0 -15 6 -15 13 0 8 -3 8
-8 1 -10 -14 -84 -15 -75 0 4 6 -1 5 -11 -3 -15 -13 -19 -13 -27 0 -5 8 -9 9
-9 3 0 -6 -11 -11 -25 -11 -15 0 -22 4 -18 11 4 7 2 7 -7 -1 -17 -16 -40 -5
-40 19 0 12 5 17 13 13 6 -4 5 0 -4 7 -14 11 -14 15 -3 26 17 16 27 16 18 0
-5 -10 -4 -10 6 -1 7 6 19 9 28 6 11 -5 13 -3 7 6 -4 8 4 6 19 -4 25 -17 26
-17 20 0 -7 17 -6 17 20 0 25 -17 26 -17 20 0 -7 17 -6 17 19 1 19 -13 27 -14
33 -5 4 8 3 9 -4 5 -7 -4 -12 -2 -12 3 0 17 18 13 29 -6 6 -10 11 -12 11 -5 0
6 5 12 11 12 5 0 7 -6 3 -12 -4 -7 3 -4 16 7 13 11 20 14 15 6 -6 -11 -4 -13
10 -7 11 4 22 2 27 -6 5 -10 8 -8 8 5 0 10 5 15 10 12 6 -4 7 -12 4 -18 -5 -9
-3 -8 6 0 9 9 17 9 26 2 8 -7 14 -6 20 2 5 8 3 9 -6 4 -9 -6 -11 -4 -5 5 6 10
11 10 20 -4 12 -15 13 -15 19 0 5 13 9 14 21 4 11 -9 15 -9 15 -1 0 7 5 9 10
6 6 -3 10 3 10 15 0 12 4 19 9 16 9 -6 7 37 -3 53 -3 5 0 12 6 14 10 4 10 6 1
6 -7 1 -13 6 -13 12 0 5 4 8 9 5 5 -4 8 2 6 11 -2 10 -4 18 -5 18 -7 0 -4 67
3 72 4 2 3 11 -4 19 -9 11 -9 14 0 14 8 0 7 6 -3 16 -20 20 -21 30 -1 14 13
-11 14 -10 9 4 -5 14 -23 21 -46 17 -5 0 -8 3 -8 9 0 5 -5 10 -11 10 -5 0 -7
-6 -3 -12 5 -9 2 -9 -9 1 -14 11 -17 11 -17 0 0 -12 -2 -12 -9 0 -6 9 -10 10
-16 2 -5 -9 -10 -9 -20 -1 -10 8 -14 7 -18 -2 -4 -10 -6 -10 -6 1 -1 11 -4 11
-16 1 -12 -10 -15 -9 -15 6 -1 18 -1 18 -11 1 -8 -14 -14 -15 -24 -7 -9 8 -15
8 -20 0 -3 -6 -12 -7 -18 -3 -19 12 -37 12 -37 1 0 -5 -7 -2 -16 6 -17 18 -28
21 -19 7 3 -5 1 -12 -5 -16 -5 -3 -10 -2 -10 3 0 5 -7 9 -15 9 -8 0 -15 -5
-15 -11 0 -6 -5 -4 -10 4 -7 11 -12 12 -21 3 -8 -8 -18 -9 -35 -1 -28 13 -32
51 -8 75 13 14 17 14 25 2 7 -12 9 -12 9 0 0 10 3 11 14 2 11 -9 16 -9 21 0 6
8 10 7 16 -2 7 -11 9 -11 9 1 0 13 1 13 10 0 8 -12 10 -12 10 -1 0 10 3 11 13
2 10 -8 17 -7 25 1 9 9 12 9 12 -1 0 -7 5 -9 13 -4 20 12 37 12 37 0 0 -7 5
-5 10 3 9 13 10 13 10 0 0 -11 2 -12 8 -3 10 15 48 9 44 -7 -1 -6 2 -9 8 -5 6
3 8 10 6 14 -3 4 7 7 22 5 15 -1 27 -3 27 -4 0 -1 18 -3 39 -5 26 -2 34 0 25
6 -11 7 -9 9 8 9 26 0 50 35 32 46 -8 4 -7 9 2 15 8 5 9 9 3 9 -11 0 -12 49
-1 67 4 6 2 15 -4 19 -8 4 -7 9 2 15 10 6 11 9 2 9 -7 0 -13 5 -13 11 0 5 4 8
9 5 11 -7 9 13 -2 32 -5 7 -3 12 4 12 8 0 8 4 -1 15 -7 8 -10 22 -6 30 3 9 0
15 -10 15 -8 0 -13 4 -10 8 3 5 -1 9 -9 9 -8 0 -12 -4 -9 -9 3 -4 -2 -5 -10
-2 -9 3 -13 11 -10 18 3 6 -2 2 -10 -8 -9 -11 -16 -15 -16 -10 0 14 -31 14
-49 0 -11 -8 -13 -8 -7 1 5 9 -2 12 -26 9 -18 -2 -41 0 -50 5 -14 8 -16 6 -11
-8 6 -15 4 -16 -8 -6 -12 10 -18 10 -27 1 -9 -9 -15 -8 -26 7 -13 18 -13 18
-24 -1 -6 -10 -12 -14 -12 -9 0 6 -9 11 -20 12 -13 1 -18 -2 -13 -10 5 -9 3
-9 -8 0 -8 6 -28 10 -44 8 -17 -1 -36 2 -44 9 -11 8 -13 8 -8 0 4 -7 0 -14 -8
-18 -8 -3 -17 -1 -20 4 -7 12 -45 8 -45 -5 0 -5 -4 -4 -9 4 -8 13 -12 13 -27
0 -15 -12 -17 -12 -9 0 6 11 4 13 -7 8 -9 -3 -21 0 -28 6 -9 9 -11 9 -7 1 8
-14 -20 -27 -28 -14 -7 12 -45 8 -45 -5 0 -5 -4 -4 -9 4 -8 13 -12 13 -27 0
-10 -8 -15 -9 -11 -3 4 7 -2 14 -13 17 -11 3 -18 2 -15 -3z"/>
</g>
</svg>
